<?xml version="1.0" encoding="iso-8859-1"?>
<!-- Uploaded to: SVG Repo, www.svgrepo.com, Generator: SVG Repo Mixer Tools -->
<svg version="1.1" id="Layer_1" xmlns="http://www.w3.org/2000/svg" xmlns:xlink="http://www.w3.org/1999/xlink" 
	 viewBox="0 0 392.727 392.727" xml:space="preserve">
<polyline style="fill:#FFFFFF;" points="65.034,370.747 161.293,370.747 178.877,270.545 47.515,270.545 "/>
<polygon style="fill:#56ACE0;" points="83.329,348.897 73.438,292.331 152.889,292.331 142.998,348.897 "/>
<path style="fill:#FFC10D;" d="M113.196,99.491c-9.115,0-16.614,7.434-16.614,16.614c0,9.115,7.434,16.614,16.614,16.614
	c9.115,0,16.614-7.434,16.614-16.614S122.376,99.491,113.196,99.491z"/>
<g>
	<path style="fill:#194F82;" d="M113.196,77.64c-21.204,0-38.4,17.261-38.4,38.4s17.261,38.4,38.4,38.4s38.4-17.261,38.4-38.4
		S134.335,77.64,113.196,77.64z M113.196,132.655c-9.115,0-16.614-7.434-16.614-16.614c0-9.115,7.434-16.614,16.614-16.614
		c9.115,0,16.614,7.434,16.614,16.614C129.81,125.285,122.376,132.655,113.196,132.655z"/>
	<path style="fill:#194F82;" d="M215.337,248.76h-31.354v-44.347c0-24.501-19.911-44.347-44.347-44.347
		c-3.168,0-6.206,1.422-8.275,3.814l-18.166,21.204L95.03,163.879c-2.069-2.392-5.107-3.814-8.275-3.814
		c-24.501,0-44.347,19.911-44.347,44.347v44.347H10.99c-6.012,0-10.925,4.848-10.925,10.925c0,6.077,4.848,10.925,10.925,10.925
		h14.287l19.846,113.067c0.905,5.172,5.43,9.051,10.731,9.051h114.489c5.301,0,9.826-3.814,10.731-9.051l19.846-113.067h14.287
		c6.012,0,10.925-4.848,10.925-10.925C226.198,253.608,221.35,248.76,215.337,248.76z M64.194,204.412
		c0-10.925,7.758-19.911,18.036-22.109l22.691,26.57c4.848,5.495,12.412,4.784,16.549,0l22.691-26.57
		c10.279,2.133,18.036,11.184,18.036,22.109v44.347H64.194V204.412z M161.293,370.747H65.034l-3.297-19.006h14.933
		c6.012,0,10.925-4.849,10.925-10.925s-4.848-10.925-10.925-10.925H57.923l-3.103-17.648h43.378c6.012,0,10.925-4.848,10.925-10.925
		c0-6.012-4.848-10.925-10.925-10.925H51.071l-3.491-19.911h131.426L161.293,370.747z"/>
</g>
<path style="fill:#FFC10D;" d="M162.133,204.412c0-10.925-7.758-19.911-18.036-22.109l-22.691,26.57
	c-4.073,4.784-11.636,5.495-16.549,0l-22.691-26.57c-10.279,2.133-18.036,11.184-18.036,22.109v44.347h98.004V204.412
	L162.133,204.412z"/>
<rect x="202.731" y="21.786" style="fill:#56ACE0;" width="168.081" height="119.855"/>
<g>
	<path style="fill:#194F82;" d="M329.309,116.687h-62.642c-6.012,0-10.925-4.848-10.925-10.925c0-6.012,4.848-10.925,10.925-10.925
		h62.642c6.012,0,10.925,4.848,10.925,10.925C340.17,111.838,335.321,116.687,329.309,116.687z"/>
	<path style="fill:#194F82;" d="M329.309,68.461h-85.01c-6.012,0-10.925-4.848-10.925-10.925s4.848-10.925,10.925-10.925h85.01
		c6.012,0,10.925,4.848,10.925,10.925S335.321,68.461,329.309,68.461z"/>
	<path style="fill:#194F82;" d="M381.802,0H191.806c-6.012,0-10.925,4.848-10.925,10.925v141.64c0,6.012,4.848,10.925,10.925,10.925
		h189.931c6.012,0,10.925-4.848,10.925-10.925V10.861C392.663,4.848,387.814,0,381.802,0z M370.877,141.64H202.731V21.786h168.081
		V141.64H370.877z"/>
</g>
</svg>